<?xml version="1.0" standalone="no"?>
<!DOCTYPE svg PUBLIC "-//W3C//DTD SVG 20010904//EN"
 "http://www.w3.org/TR/2001/REC-SVG-20010904/DTD/svg10.dtd">
<svg version="1.0" xmlns="http://www.w3.org/2000/svg"
 width="454.000000pt" height="460.000000pt" viewBox="0 0 454.000000 460.000000"
 preserveAspectRatio="xMidYMid meet">
<metadata>
Created by potrace 1.16, written by Peter Selinger 2001-2019
</metadata>
<g transform="translate(0.000000,460.000000) scale(0.100000,-0.100000)"
fill="#000000" stroke="none">
<path d="M2255 4534 c-500 -37 -946 -205 -1363 -515 -105 -78 -316 -285 -371
-364 -34 -47 -34 -48 -10 -41 125 35 162 40 294 40 137 -1 224 -15 232 -39 1
-6 -41 -34 -95 -64 -323 -180 -646 -441 -833 -674 l-80 -99 73 -80 c170 -189
230 -243 381 -346 254 -173 518 -267 846 -303 195 -21 473 0 673 52 121 30
257 75 328 108 l62 28 -135 99 c-75 54 -136 102 -137 106 0 8 237 158 251 158
5 0 95 -36 200 -81 136 -57 196 -78 212 -73 12 4 108 49 213 101 128 64 206
97 237 100 149 17 185 -132 61 -248 -22 -20 -114 -88 -205 -152 -91 -64 -171
-122 -176 -129 -5 -7 -31 -114 -57 -238 -26 -124 -52 -230 -59 -236 -20 -18
-275 -149 -281 -144 -2 3 -7 61 -11 130 -10 202 -11 210 -44 210 -16 0 -98
-31 -182 -69 -431 -192 -839 -287 -1261 -294 -93 -1 -168 -4 -168 -7 2 -20
263 -181 405 -250 194 -94 421 -163 648 -195 162 -24 480 -17 652 14 394 70
759 231 1092 479 121 91 370 336 407 402 l19 33 -24 -7 c-99 -28 -187 -40
-289 -41 -105 0 -240 19 -240 34 0 3 39 28 88 55 170 97 338 212 482 330 172
142 430 418 430 461 0 18 -190 215 -278 288 -165 138 -388 264 -587 334 l-80
28 -512 3 c-568 3 -550 5 -760 -69 -151 -53 -151 -40 2 -154 74 -55 134 -103
135 -106 0 -4 -58 -41 -129 -83 l-129 -77 -168 72 c-256 108 -206 109 -444 -9
-113 -56 -223 -104 -246 -107 -91 -15 -157 52 -136 137 19 74 52 106 257 253
l200 142 47 238 c26 131 49 239 50 240 27 19 282 145 293 145 13 0 15 -27 15
-195 0 -107 2 -195 5 -195 3 0 56 27 118 59 404 214 863 336 1347 359 l165 7
-105 70 c-359 236 -726 354 -1140 368 -74 2 -157 3 -185 1z m834 -344 c154
-10 295 -29 285 -39 -7 -8 -904 -8 -904 0 0 14 211 37 445 47 17 1 95 -3 174
-8z"/>
<path d="M3361 619 c-24 -5 -46 -11 -48 -13 -3 -3 -20 -74 -39 -158 -19 -84
-38 -170 -43 -191 l-9 -37 37 0 38 0 67 188 c37 103 70 195 73 205 6 19 -5 20
-76 6z"/>
<path d="M1425 608 c-91 -32 -155 -104 -155 -173 0 -37 5 -47 42 -81 108 -100
118 -112 118 -137 0 -29 -32 -57 -66 -57 -12 0 -38 11 -58 25 l-37 25 -20 -47
c-22 -53 -20 -65 14 -88 63 -41 165 -26 227 34 45 43 64 102 54 169 -7 47 -29
75 -107 139 -36 31 -37 76 -1 100 31 20 56 9 64 -30 l5 -25 50 16 c47 16 50
19 53 54 5 58 -31 88 -100 87 -29 0 -66 -5 -83 -11z"/>
<path d="M1703 611 c-24 -4 -44 -9 -47 -12 -6 -7 -75 -407 -83 -478 l-6 -64
34 7 c19 4 64 10 102 13 l67 6 0 33 c0 33 -1 34 -40 34 -37 0 -40 2 -40 28 0
15 22 120 49 235 54 233 58 213 -36 198z"/>
<path d="M2085 611 l-30 -6 -42 -245 c-23 -135 -45 -260 -48 -279 l-6 -34 56
6 c116 12 216 91 281 222 32 65 38 89 42 159 5 96 -9 135 -61 166 -33 20 -125
26 -192 11z m130 -111 c40 -44 -11 -242 -86 -333 -53 -64 -55 -37 -15 155 21
95 39 179 41 186 6 19 40 14 60 -8z"/>
<path d="M2498 611 c-43 -4 -81 -10 -85 -15 -8 -8 -102 -527 -97 -537 2 -3 54
2 116 11 l113 16 3 38 c3 32 1 37 -15 33 -49 -14 -82 -17 -87 -8 -4 5 -2 31 4
58 21 100 16 93 64 93 52 0 78 21 74 58 -3 25 -6 26 -52 23 l-49 -3 8 59 c11
86 16 93 79 93 50 0 54 2 60 28 4 15 9 35 12 45 6 19 -4 20 -148 8z"/>
<path d="M3150 608 c-36 -5 -93 -7 -128 -4 l-63 5 3 -47 c3 -45 4 -47 36 -50
30 -3 32 -6 32 -40 -1 -20 -16 -122 -34 -227 -19 -104 -33 -191 -32 -191 0 -1
27 3 59 8 46 8 58 14 62 32 2 11 19 104 36 206 17 102 36 191 41 198 6 6 23
12 38 12 26 0 29 4 39 50 6 28 11 53 11 55 0 6 -18 5 -100 -7z"/>
<path d="M1941 601 c-19 -3 -38 -13 -42 -21 -7 -12 -60 -291 -96 -495 l-5 -30
47 3 c36 3 48 9 56 26 7 18 109 500 109 519 0 8 -19 7 -69 -2z"/>
<path d="M2875 601 l-40 -6 -46 -250 c-26 -138 -49 -260 -53 -272 -6 -19 -4
-20 41 -16 26 3 51 9 56 12 4 4 30 117 58 252 27 134 52 254 56 267 6 24 3 25
-72 13z"/>
</g>
</svg>
